<svg xmlns="http://www.w3.org/2000/svg" xmlns:xlink="http://www.w3.org/1999/xlink" contentStyleType="text/css" data-diagram-type="SEQUENCE" height="825px" preserveAspectRatio="none" style="width:821px;height:825px;background:#FFFFFF;" version="1.1" viewBox="0 0 821 825" width="821px" zoomAndPan="magnify"><?plantuml 1.2026.7beta1?><defs/><g><g><title>Pipeline RAG</title><rect fill="#FFFFFF" height="606.4531" style="stroke:#181818;stroke-width:1;" width="10" x="255.6948" y="182.2031"/></g><g><title>Backend RAG</title><rect fill="#FFFFFF" height="205.4844" style="stroke:#181818;stroke-width:1;" width="10" x="404.877" y="346.0469"/></g><g><title>Ollama</title><rect fill="#FFFFFF" height="648.7344" style="stroke:#181818;stroke-width:1;" width="10" x="711.0801" y="99.2813"/></g><rect fill="none" height="545.8125" style="stroke:#000000;stroke-width:1.5;" width="756.6743" x="49.0029" y="235.8438"/><rect fill="none" height="78.5625" style="stroke:#000000;stroke-width:1.5;" width="617.3091" x="178.3682" y="644.8125"/><g class="participant-lifeline" data-entity-uid="part1" data-qualified-name="Usuario" data-source-line="35" id="part1-lifeline"><g><title>Usuario</title><rect fill="#000000" fill-opacity="0.00000" height="735.0156" width="8" x="23.0015" y="89.2813"/><line style="stroke:#181818;stroke-width:0.5;stroke-dasharray:5,5;" x1="27" x2="27" y1="89.2813" y2="824.2969"/></g></g><g class="participant-lifeline" data-entity-uid="part2" data-qualified-name="WebUI" data-source-line="36" id="part2-lifeline"><g><title>OpenWebUI</title><rect fill="#000000" fill-opacity="0.00000" height="735.0156" width="8" x="114.6855" y="89.2813"/><line style="stroke:#181818;stroke-width:0.5;stroke-dasharray:5,5;" x1="118.0029" x2="118.0029" y1="89.2813" y2="824.2969"/></g></g><g class="participant-lifeline" data-entity-uid="part3" data-qualified-name="Pipeline" data-source-line="37" id="part3-lifeline"><g><title>Pipeline RAG</title><rect fill="#000000" fill-opacity="0.00000" height="735.0156" width="8" x="256.6948" y="89.2813"/><line style="stroke:#181818;stroke-width:0.5;stroke-dasharray:5,5;" x1="260.3682" x2="260.3682" y1="89.2813" y2="824.2969"/></g></g><g class="participant-lifeline" data-entity-uid="part4" data-qualified-name="RAG" data-source-line="38" id="part4-lifeline"><g><title>Backend RAG</title><rect fill="#000000" fill-opacity="0.00000" height="735.0156" width="8" x="405.877" y="89.2813"/><line style="stroke:#181818;stroke-width:0.5;stroke-dasharray:5,5;" x1="409.0215" x2="409.0215" y1="89.2813" y2="824.2969"/></g></g><g class="participant-lifeline" data-entity-uid="part5" data-qualified-name="OpenCTI" data-source-line="39" id="part5-lifeline"><g><title>OpenCTI</title><rect fill="#000000" fill-opacity="0.00000" height="735.0156" width="8" x="538.1289" y="89.2813"/><line style="stroke:#181818;stroke-width:0.5;stroke-dasharray:5,5;" x1="541.7544" x2="541.7544" y1="89.2813" y2="824.2969"/></g></g><g class="participant-lifeline" data-entity-uid="part6" data-qualified-name="Chroma" data-source-line="40" id="part6-lifeline"><g><title>ChromaDB</title><rect fill="#000000" fill-opacity="0.00000" height="735.0156" width="8" x="602.4932" y="89.2813"/><line style="stroke:#181818;stroke-width:0.5;stroke-dasharray:5,5;" x1="605.5034" x2="605.5034" y1="89.2813" y2="824.2969"/></g></g><g class="participant-lifeline" data-entity-uid="part7" data-qualified-name="Ollama" data-source-line="41" id="part7-lifeline"><g><title>Ollama</title><rect fill="#000000" fill-opacity="0.00000" height="735.0156" width="8" x="712.0801" y="89.2813"/><line style="stroke:#181818;stroke-width:0.5;stroke-dasharray:5,5;" x1="715.4829" x2="715.4829" y1="89.2813" y2="824.2969"/></g></g><g class="participant participant-head" data-entity-uid="part1" data-qualified-name="Usuario" data-source-line="35" id="part1-head"><text fill="#000000" font-family="sans-serif" font-size="10" lengthAdjust="spacing" textLength="38.0029" x="5" y="86.9229">Usuario</text><ellipse cx="27.0015" cy="26.1406" fill="#E2E2F0" rx="8" ry="8" style="stroke:#181818;stroke-width:0.5;"/><path d="M27.0015,34.1406 L27.0015,61.1406 M14.0015,42.1406 L40.0015,42.1406 M27.0015,61.1406 L14.0015,76.1406 M27.0015,61.1406 L40.0015,76.1406" fill="none" style="stroke:#181818;stroke-width:0.5;"/></g><g class="participant participant-head" data-entity-uid="part2" data-qualified-name="WebUI" data-source-line="36" id="part2-head"><rect fill="#E2E2F0" height="51.6406" rx="2.5" ry="2.5" style="stroke:#181818;stroke-width:0.5;" width="99.3652" x="69.0029" y="26.6406"/><text fill="#000000" font-family="sans-serif" font-size="10" lengthAdjust="spacing" textLength="59.3652" x="89.0029" y="55.9229">OpenWebUI</text></g><g class="participant participant-head" data-entity-uid="part3" data-qualified-name="Pipeline" data-source-line="37" id="part3-head"><rect fill="#E2E2F0" height="63.2813" rx="2.5" ry="2.5" style="stroke:#181818;stroke-width:0.5;" width="124.6533" x="198.3682" y="15"/><text fill="#000000" font-family="sans-serif" font-size="10" lengthAdjust="spacing" textLength="64.0723" x="228.6587" y="44.2822">Pipeline RAG</text><text fill="#000000" font-family="sans-serif" font-size="10" lengthAdjust="spacing" textLength="84.6533" x="218.3682" y="55.9229">(Lily / CyberOSS)</text></g><g class="participant participant-head" data-entity-uid="part4" data-qualified-name="RAG" data-source-line="38" id="part4-head"><rect fill="#E2E2F0" height="63.2813" rx="2.5" ry="2.5" style="stroke:#181818;stroke-width:0.5;" width="113.7109" x="353.0215" y="15"/><text fill="#000000" font-family="sans-serif" font-size="10" lengthAdjust="spacing" textLength="67.832" x="375.9609" y="44.2822">Backend RAG</text><text fill="#000000" font-family="sans-serif" font-size="10" lengthAdjust="spacing" textLength="73.7109" x="373.0215" y="55.9229">/query-context</text></g><g class="participant participant-head" data-entity-uid="part5" data-qualified-name="OpenCTI" data-source-line="39" id="part5-head"><text fill="#000000" font-family="sans-serif" font-size="10" lengthAdjust="spacing" textLength="42.749" x="517.7544" y="86.9229">OpenCTI</text><path d="M524.1289,41.6406 C524.1289,31.6406 542.1289,31.6406 542.1289,31.6406 C542.1289,31.6406 560.1289,31.6406 560.1289,41.6406 L560.1289,67.6406 C560.1289,77.6406 542.1289,77.6406 542.1289,77.6406 C542.1289,77.6406 524.1289,77.6406 524.1289,67.6406 L524.1289,41.6406" fill="#E2E2F0" style="stroke:#181818;stroke-width:0.5;"/><path d="M524.1289,41.6406 C524.1289,51.6406 542.1289,51.6406 542.1289,51.6406 C542.1289,51.6406 560.1289,51.6406 560.1289,41.6406" fill="none" style="stroke:#181818;stroke-width:0.5;"/></g><g class="participant participant-head" data-entity-uid="part6" data-qualified-name="Chroma" data-source-line="40" id="part6-head"><text fill="#000000" font-family="sans-serif" font-size="10" lengthAdjust="spacing" textLength="53.9795" x="576.5034" y="86.9229">ChromaDB</text><path d="M588.4932,41.6406 C588.4932,31.6406 606.4932,31.6406 606.4932,31.6406 C606.4932,31.6406 624.4932,31.6406 624.4932,41.6406 L624.4932,67.6406 C624.4932,77.6406 606.4932,77.6406 606.4932,77.6406 C606.4932,77.6406 588.4932,77.6406 588.4932,67.6406 L588.4932,41.6406" fill="#E2E2F0" style="stroke:#181818;stroke-width:0.5;"/><path d="M588.4932,41.6406 C588.4932,51.6406 606.4932,51.6406 606.4932,51.6406 C606.4932,51.6406 624.4932,51.6406 624.4932,41.6406" fill="none" style="stroke:#181818;stroke-width:0.5;"/></g><g class="participant participant-head" data-entity-uid="part7" data-qualified-name="Ollama" data-source-line="41" id="part7-head"><rect fill="#E2E2F0" height="63.2813" rx="2.5" ry="2.5" style="stroke:#181818;stroke-width:0.5;" width="119.1943" x="656.4829" y="15"/><text fill="#000000" font-family="sans-serif" font-size="10" lengthAdjust="spacing" textLength="35.4248" x="698.3677" y="44.2822">Ollama</text><text fill="#000000" font-family="sans-serif" font-size="10" lengthAdjust="spacing" textLength="79.1943" x="676.4829" y="55.9229">Modelos locales</text></g><g><title>Pipeline RAG</title><rect fill="#FFFFFF" height="606.4531" style="stroke:#181818;stroke-width:1;" width="10" x="255.6948" y="182.2031"/></g><g><title>Backend RAG</title><rect fill="#FFFFFF" height="205.4844" style="stroke:#181818;stroke-width:1;" width="10" x="404.877" y="346.0469"/></g><g><title>Ollama</title><rect fill="#FFFFFF" height="648.7344" style="stroke:#181818;stroke-width:1;" width="10" x="711.0801" y="99.2813"/></g><rect fill="#EEEEEE" height="3" style="stroke:#EEEEEE;stroke-width:1;" width="815.6772" x="0" y="118.1016"/><line style="stroke:#000000;stroke-width:1;" x1="0" x2="815.6772" y1="118.1016" y2="118.1016"/><line style="stroke:#000000;stroke-width:1;" x1="0" x2="815.6772" y1="121.1016" y2="121.1016"/><rect fill="#EEEEEE" height="19.6406" style="stroke:#000000;stroke-width:2;" width="133.3359" x="341.1707" y="109.2813"/><text fill="#000000" font-family="sans-serif" font-size="10" font-weight="700" lengthAdjust="spacing" textLength="115.8545" x="347.1707" y="122.5635">Consulta del usuario</text><g class="message" data-entity-1="part1" data-entity-2="part2" data-source-line="45" id="msg1"><polygon fill="#181818" points="106.6855,152.5625,116.6855,156.5625,106.6855,160.5625,110.6855,156.5625" style="stroke:#181818;stroke-width:1;stroke-linejoin:miter;stroke-miterlimit:10;"/><line style="stroke:#181818;stroke-width:1;" x1="27.0015" x2="112.6855" y1="156.5625" y2="156.5625"/><text fill="#000000" font-family="sans-serif" font-size="10" lengthAdjust="spacing" textLength="45.3662" x="34.0015" y="152.2041">Pregunta</text></g><g class="message" data-entity-1="part2" data-entity-2="part3" data-source-line="46" id="msg2"><polygon fill="#181818" points="243.6948,178.2031,253.6948,182.2031,243.6948,186.2031,247.6948,182.2031" style="stroke:#181818;stroke-width:1;stroke-linejoin:miter;stroke-miterlimit:10;"/><line style="stroke:#181818;stroke-width:1;" x1="118.6855" x2="249.6948" y1="182.2031" y2="182.2031"/><text fill="#000000" font-family="sans-serif" font-size="10" lengthAdjust="spacing" textLength="67.6904" x="125.6855" y="177.8447">Conversaci&#243;n</text></g><g class="message" data-entity-1="part3" data-entity-2="part3" data-source-line="49" id="msg3"><line style="stroke:#181818;stroke-width:1;" x1="265.6948" x2="307.6948" y1="207.8438" y2="207.8438"/><line style="stroke:#181818;stroke-width:1;" x1="307.6948" x2="307.6948" y1="207.8438" y2="220.8438"/><line style="stroke:#181818;stroke-width:1;" x1="266.6948" x2="307.6948" y1="220.8438" y2="220.8438"/><polygon fill="#181818" points="276.6948,216.8438,266.6948,220.8438,276.6948,224.8438,272.6948,220.8438" style="stroke:#181818;stroke-width:1;stroke-linejoin:miter;stroke-miterlimit:10;"/><text fill="#000000" font-family="sans-serif" font-size="10" lengthAdjust="spacing" textLength="81.4111" x="272.6948" y="203.4854">Extrae pregunta</text></g><path d="M49.0029,235.8438 L108.959,235.8438 L108.959,239.4844 L98.959,249.4844 L49.0029,249.4844 L49.0029,235.8438" fill="#EEEEEE" style="stroke:#000000;stroke-width:1.5;"/><rect fill="none" height="545.8125" style="stroke:#000000;stroke-width:1.5;" width="756.6743" x="49.0029" y="235.8438"/><text fill="#000000" font-family="sans-serif" font-size="10" font-weight="700" lengthAdjust="spacing" textLength="14.9561" x="64.0029" y="246.126">alt</text><text fill="#000000" font-family="sans-serif" font-size="10" font-weight="700" lengthAdjust="spacing" textLength="85.5615" x="123.959" y="247.126">[Tarea interna]</text><g class="message" data-entity-1="part3" data-entity-2="part2" data-source-line="52" id="msg4"><polygon fill="#181818" points="129.6855,263.125,119.6855,267.125,129.6855,271.125,125.6855,267.125" style="stroke:#181818;stroke-width:1;stroke-linejoin:miter;stroke-miterlimit:10;"/><line style="stroke:#181818;stroke-width:1;stroke-dasharray:2,2;" x1="123.6855" x2="254.6948" y1="267.125" y2="267.125"/><text fill="#000000" font-family="sans-serif" font-size="10" lengthAdjust="spacing" textLength="93.0908" x="135.6855" y="262.7666">Respuesta m&#237;nima</text></g><line style="stroke:#000000;stroke-width:1;stroke-dasharray:2,2;" x1="49.0029" x2="805.6772" y1="276.125" y2="276.125"/><text fill="#000000" font-family="sans-serif" font-size="10" font-weight="700" lengthAdjust="spacing" textLength="79.8584" x="54.0029" y="285.4072">[Consulta CTI]</text><rect fill="#EEEEEE" height="3" style="stroke:#EEEEEE;stroke-width:1;" width="815.6772" x="0" y="307.5859"/><line style="stroke:#000000;stroke-width:1;" x1="0" x2="815.6772" y1="307.5859" y2="307.5859"/><line style="stroke:#000000;stroke-width:1;" x1="0" x2="815.6772" y1="310.5859" y2="310.5859"/><rect fill="#EEEEEE" height="19.6406" style="stroke:#000000;stroke-width:2;" width="164.459" x="325.6091" y="298.7656"/><text fill="#000000" font-family="sans-serif" font-size="10" font-weight="700" lengthAdjust="spacing" textLength="146.9775" x="331.6091" y="312.0479">Recuperaci&#243;n de contexto</text><g class="message" data-entity-1="part3" data-entity-2="part4" data-source-line="57" id="msg5"><polygon fill="#181818" points="392.877,342.0469,402.877,346.0469,392.877,350.0469,396.877,346.0469" style="stroke:#181818;stroke-width:1;stroke-linejoin:miter;stroke-miterlimit:10;"/><line style="stroke:#181818;stroke-width:1;" x1="265.6948" x2="398.877" y1="346.0469" y2="346.0469"/><text fill="#000000" font-family="sans-serif" font-size="10" lengthAdjust="spacing" textLength="83.5107" x="272.6948" y="341.6885">Solicita contexto</text></g><g class="message" data-entity-1="part4" data-entity-2="part4" data-source-line="60" id="msg6"><line style="stroke:#181818;stroke-width:1;" x1="414.877" x2="456.877" y1="371.6875" y2="371.6875"/><line style="stroke:#181818;stroke-width:1;" x1="456.877" x2="456.877" y1="371.6875" y2="384.6875"/><line style="stroke:#181818;stroke-width:1;" x1="415.877" x2="456.877" y1="384.6875" y2="384.6875"/><polygon fill="#181818" points="425.877,380.6875,415.877,384.6875,425.877,388.6875,421.877,384.6875" style="stroke:#181818;stroke-width:1;stroke-linejoin:miter;stroke-miterlimit:10;"/><text fill="#000000" font-family="sans-serif" font-size="10" lengthAdjust="spacing" textLength="60.4541" x="421.877" y="367.3291">Detecta IOC</text></g><g class="message" data-entity-1="part4" data-entity-2="part5" data-source-line="62" id="msg7"><polygon fill="#181818" points="530.1289,406.3281,540.1289,410.3281,530.1289,414.3281,534.1289,410.3281" style="stroke:#181818;stroke-width:1;stroke-linejoin:miter;stroke-miterlimit:10;"/><line style="stroke:#181818;stroke-width:1;" x1="414.877" x2="536.1289" y1="410.3281" y2="410.3281"/><text fill="#000000" font-family="sans-serif" font-size="10" lengthAdjust="spacing" textLength="64.7949" x="421.877" y="405.9697">Consulta IOC</text></g><g class="message" data-entity-1="part5" data-entity-2="part4" data-source-line="63" id="msg8"><polygon fill="#181818" points="425.877,431.9688,415.877,435.9688,425.877,439.9688,421.877,435.9688" style="stroke:#181818;stroke-width:1;stroke-linejoin:miter;stroke-miterlimit:10;"/><line style="stroke:#181818;stroke-width:1;stroke-dasharray:2,2;" x1="419.877" x2="541.1289" y1="435.9688" y2="435.9688"/><text fill="#000000" font-family="sans-serif" font-size="10" lengthAdjust="spacing" textLength="90.9375" x="431.877" y="431.6104">Contexto expl&#237;cito</text></g><g class="message" data-entity-1="part4" data-entity-2="part6" data-source-line="65" id="msg9"><polygon fill="#181818" points="594.4932,457.6094,604.4932,461.6094,594.4932,465.6094,598.4932,461.6094" style="stroke:#181818;stroke-width:1;stroke-linejoin:miter;stroke-miterlimit:10;"/><line style="stroke:#181818;stroke-width:1;" x1="414.877" x2="600.4932" y1="461.6094" y2="461.6094"/><text fill="#000000" font-family="sans-serif" font-size="10" lengthAdjust="spacing" textLength="104.7949" x="421.877" y="457.251">B&#250;squeda sem&#225;ntica</text></g><g class="message" data-entity-1="part6" data-entity-2="part4" data-source-line="66" id="msg10"><polygon fill="#181818" points="425.877,483.25,415.877,487.25,425.877,491.25,421.877,487.25" style="stroke:#181818;stroke-width:1;stroke-linejoin:miter;stroke-miterlimit:10;"/><line style="stroke:#181818;stroke-width:1;stroke-dasharray:2,2;" x1="419.877" x2="605.4932" y1="487.25" y2="487.25"/><text fill="#000000" font-family="sans-serif" font-size="10" lengthAdjust="spacing" textLength="86.792" x="431.877" y="482.8916">Contexto inferido</text></g><g class="message" data-entity-1="part4" data-entity-2="part4" data-source-line="68" id="msg11"><line style="stroke:#181818;stroke-width:1;" x1="414.877" x2="456.877" y1="512.8906" y2="512.8906"/><line style="stroke:#181818;stroke-width:1;" x1="456.877" x2="456.877" y1="512.8906" y2="525.8906"/><line style="stroke:#181818;stroke-width:1;" x1="415.877" x2="456.877" y1="525.8906" y2="525.8906"/><polygon fill="#181818" points="425.877,521.8906,415.877,525.8906,425.877,529.8906,421.877,525.8906" style="stroke:#181818;stroke-width:1;stroke-linejoin:miter;stroke-miterlimit:10;"/><text fill="#000000" font-family="sans-serif" font-size="10" lengthAdjust="spacing" textLength="98.252" x="421.877" y="508.5322">Construye contexto</text></g><g class="message" data-entity-1="part4" data-entity-2="part3" data-source-line="69" id="msg12"><polygon fill="#181818" points="276.6948,547.5313,266.6948,551.5313,276.6948,555.5313,272.6948,551.5313" style="stroke:#181818;stroke-width:1;stroke-linejoin:miter;stroke-miterlimit:10;"/><line style="stroke:#181818;stroke-width:1;stroke-dasharray:2,2;" x1="270.6948" x2="408.877" y1="551.5313" y2="551.5313"/><text fill="#000000" font-family="sans-serif" font-size="10" lengthAdjust="spacing" textLength="70.1904" x="282.6948" y="547.1729">Contexto final</text></g><rect fill="#EEEEEE" height="3" style="stroke:#EEEEEE;stroke-width:1;" width="815.6772" x="0" y="578.3516"/><line style="stroke:#000000;stroke-width:1;" x1="0" x2="815.6772" y1="578.3516" y2="578.3516"/><line style="stroke:#000000;stroke-width:1;" x1="0" x2="815.6772" y1="581.3516" y2="581.3516"/><rect fill="#EEEEEE" height="19.6406" style="stroke:#000000;stroke-width:2;" width="158.5068" x="328.5852" y="569.5313"/><text fill="#000000" font-family="sans-serif" font-size="10" font-weight="700" lengthAdjust="spacing" textLength="141.0254" x="334.5852" y="582.8135">Generaci&#243;n de respuesta</text><g class="message" data-entity-1="part3" data-entity-2="part3" data-source-line="75" id="msg13"><line style="stroke:#181818;stroke-width:1;" x1="265.6948" x2="307.6948" y1="616.8125" y2="616.8125"/><line style="stroke:#181818;stroke-width:1;" x1="307.6948" x2="307.6948" y1="616.8125" y2="629.8125"/><line style="stroke:#181818;stroke-width:1;" x1="266.6948" x2="307.6948" y1="629.8125" y2="629.8125"/><polygon fill="#181818" points="276.6948,625.8125,266.6948,629.8125,276.6948,633.8125,272.6948,629.8125" style="stroke:#181818;stroke-width:1;stroke-linejoin:miter;stroke-miterlimit:10;"/><text fill="#000000" font-family="sans-serif" font-size="10" lengthAdjust="spacing" textLength="90.8545" x="272.6948" y="612.4541">Construye prompt</text></g><path d="M178.3682,644.8125 L238.3242,644.8125 L238.3242,648.4531 L228.3242,658.4531 L178.3682,658.4531 L178.3682,644.8125" fill="#EEEEEE" style="stroke:#000000;stroke-width:1.5;"/><rect fill="none" height="78.5625" style="stroke:#000000;stroke-width:1.5;" width="617.3091" x="178.3682" y="644.8125"/><text fill="#000000" font-family="sans-serif" font-size="10" font-weight="700" lengthAdjust="spacing" textLength="14.9561" x="193.3682" y="655.0947">alt</text><text fill="#000000" font-family="sans-serif" font-size="10" font-weight="700" lengthAdjust="spacing" textLength="28.8867" x="253.3242" y="656.0947">[Lily]</text><g class="message" data-entity-1="part3" data-entity-2="part7" data-source-line="78" id="msg14"><polygon fill="#181818" points="699.0801,672.0938,709.0801,676.0938,699.0801,680.0938,703.0801,676.0938" style="stroke:#181818;stroke-width:1;stroke-linejoin:miter;stroke-miterlimit:10;"/><line style="stroke:#181818;stroke-width:1;" x1="265.6948" x2="705.0801" y1="676.0938" y2="676.0938"/><text fill="#000000" font-family="sans-serif" font-size="10" lengthAdjust="spacing" textLength="70.8838" x="272.6948" y="671.7354">Chat est&#225;ndar</text></g><line style="stroke:#000000;stroke-width:1;stroke-dasharray:2,2;" x1="178.3682" x2="795.6772" y1="685.0938" y2="685.0938"/><text fill="#000000" font-family="sans-serif" font-size="10" font-weight="700" lengthAdjust="spacing" textLength="64.7754" x="183.3682" y="694.376">[CyberOSS]</text><g class="message" data-entity-1="part3" data-entity-2="part7" data-source-line="80" id="msg15"><polygon fill="#181818" points="699.0801,711.375,709.0801,715.375,699.0801,719.375,703.0801,715.375" style="stroke:#181818;stroke-width:1;stroke-linejoin:miter;stroke-miterlimit:10;"/><line style="stroke:#181818;stroke-width:1;" x1="265.6948" x2="705.0801" y1="715.375" y2="715.375"/><text fill="#000000" font-family="sans-serif" font-size="10" lengthAdjust="spacing" textLength="74.0137" x="272.6948" y="711.0166">Chat adaptado</text></g><g class="message" data-entity-1="part7" data-entity-2="part3" data-source-line="84" id="msg16"><polygon fill="#181818" points="276.6948,744.0156,266.6948,748.0156,276.6948,752.0156,272.6948,748.0156" style="stroke:#181818;stroke-width:1;stroke-linejoin:miter;stroke-miterlimit:10;"/><line style="stroke:#181818;stroke-width:1;stroke-dasharray:2,2;" x1="270.6948" x2="715.0801" y1="748.0156" y2="748.0156"/><text fill="#000000" font-family="sans-serif" font-size="10" lengthAdjust="spacing" textLength="52.4072" x="282.6948" y="743.6572">Respuesta</text></g><g class="message" data-entity-1="part3" data-entity-2="part2" data-source-line="87" id="msg17"><polygon fill="#181818" points="129.6855,769.6563,119.6855,773.6563,129.6855,777.6563,125.6855,773.6563" style="stroke:#181818;stroke-width:1;stroke-linejoin:miter;stroke-miterlimit:10;"/><line style="stroke:#181818;stroke-width:1;stroke-dasharray:2,2;" x1="123.6855" x2="254.6948" y1="773.6563" y2="773.6563"/><text fill="#000000" font-family="sans-serif" font-size="10" lengthAdjust="spacing" textLength="77.1289" x="135.6855" y="769.2979">Respuesta final</text></g><g class="message" data-entity-1="part2" data-entity-2="part1" data-source-line="92" id="msg18"><polygon fill="#181818" points="38.0015,802.2969,28.0015,806.2969,38.0015,810.2969,34.0015,806.2969" style="stroke:#181818;stroke-width:1;stroke-linejoin:miter;stroke-miterlimit:10;"/><line style="stroke:#181818;stroke-width:1;stroke-dasharray:2,2;" x1="32.0015" x2="117.6855" y1="806.2969" y2="806.2969"/><text fill="#000000" font-family="sans-serif" font-size="10" lengthAdjust="spacing" textLength="49.9414" x="44.0015" y="801.9385">Resultado</text></g><?plantuml-src ZLF1JXin4BtxAqQSsaEKmgb291A45Y4LWH9GBrmcws6nwjXRsukILlsOVW2dtdhDZtLixswo8IhSrkltnk-zcNbKak31sZ2tIo5EV5Xf6WjFtsio1PqhB1qkuAS0-6nDcAaV18SV-7H5tcD9frgL1WeoWPpu9KI5BgX2LMX28jsWbCgKS9Guw4fb8f-HM0JhNi5833X7Jw_0IcVhgeSvFDfWFaQ8emToqT5_OIV3nd-ZxixNw9JjkJguhiXyfVdTvG6WX_JL1zoeYhGo1DFJYtlpxelIAnZ2P3KdTpsRlK-q5jDddc7nZOpCn26tmAq61STEov1O_7-JIH8okSqock-jsycZimiyFqlN-R3ZGsjSuBsvifAqzQ1jWPfyBfVkX1YDO6ADhtL0O1JKEH0OZOHeme71E8S0nt3ZgAnDG95_y4sNnN4iz4JEOw7MVqnAM3rXe4qK7RRF-xGC3WcgjhP07U0M7I6eE7O6kOcmOGos14t9LpLvLhzOFnl5baXpE9sd65bYiz4f5NL5BkjZjz0adztsdnZ7Ld3zcTMS9nTgiGdNMOlzIdyYkYETKw22EPVNazvjqyCSLTON8H7HNWsw8fDM72qhlNvc4RPNB7USWMVhlvudII9uMgn_6nw075Y3s5DI6LuM9UqUxL5PSFMA-euJvaMxSxK7PL3dKf9UHiF9Nv3PpjrrJTiNVF-9Hap5LggGmN4yuiwbmoux3tRaFc80VeGJaUWIDez6iwPlOAF4Ag3C2V3QYdxpcnrAxSkydOIwuTpDfjs-Dunr3ZSzlbMWMwbs4PdRhcjYn-6IzXy0?></g></svg>